<svg width="20" height="20" viewBox="0 0 20 20" fill="none" xmlns="http://www.w3.org/2000/svg">
<path d="M7.5 12C7.776 12 8 12.224 8 12.5V16.5C8 16.776 7.776 17 7.5 17H3.5C3.224 17 3 16.776 3 16.5V12.5C3 12.224 3.224 12 3.5 12H7.5ZM16.5 12C16.776 12 17 12.224 17 12.5V16.5C17 16.776 16.776 17 16.5 17H12.5C12.224 17 12 16.776 12 16.5V12.5C12 12.224 12.224 12 12.5 12H16.5ZM7 13H4V16H7V13ZM16 13H13V16H16V13ZM10 11.5C10.276 11.5 10.5 11.724 10.5 12V15C10.5 15.276 10.276 15.5 10 15.5C9.724 15.5 9.5 15.276 9.5 15V12C9.5 11.724 9.724 11.5 10 11.5ZM5 9.5C5.276 9.5 5.5 9.724 5.5 10C5.5 10.276 5.276 10.5 5 10.5H3.5C3.224 10.5 3 10.276 3 10C3 9.724 3.224 9.5 3.5 9.5H5ZM10 8C10.276 8 10.5 8.224 10.5 8.5V10C10.5 10.276 10.276 10.5 10 10.5H6.706C6.4295 10.5 6.206 10.276 6.206 10C6.206 9.724 6.4295 9.5 6.706 9.5H9.5V8.5C9.5 8.224 9.724 8 10 8ZM14 9.5C14.276 9.5 14.5 9.724 14.5 10C14.5 10.276 14.276 10.5 14 10.5H11.5C11.224 10.5 11 10.276 11 10C11 9.724 11.224 9.5 11.5 9.5H14ZM7.5 3C7.776 3 8 3.224 8 3.5V7.5C8 7.776 7.776 8 7.5 8H3.5C3.224 8 3 7.776 3 7.5V3.5C3 3.224 3.224 3 3.5 3H7.5ZM16.5 3C16.776 3 17 3.224 17 3.5V7.5C17 7.776 16.776 8 16.5 8H12.5C12.224 8 12 7.776 12 7.5V3.5C12 3.224 12.224 3 12.5 3H16.5ZM7 4H4V7H7V4ZM16 4H13V7H16V4ZM10 3C10.276 3 10.5 3.224 10.5 3.5V6C10.5 6.276 10.276 6.5 10 6.5C9.724 6.5 9.5 6.276 9.5 6V3.5C9.5 3.224 9.724 3 10 3Z" fill="white"/>
</svg>
