<svg width="121" height="40" viewBox="0 0 121 40" fill="none" xmlns="http://www.w3.org/2000/svg">
<g clip-path="url(#clip0_1901_508)">
<path d="M112.034 0H8.97064C8.64482 0 8.32308 7.67045e-08 7.9981 0.00203835C7.72618 0.00391983 7.45623 0.00972025 7.18177 0.0144239C6.59051 0.0308869 5.99177 0.0713398 5.40137 0.188933C4.80673 0.304643 4.25399 0.502355 3.71268 0.807782C3.18083 1.11054 2.69499 1.50377 2.27462 1.97133C1.84959 2.43887 1.49723 2.98074 1.22785 3.57152C0.951551 4.17219 0.776291 4.78916 0.672574 5.45035C0.56547 6.104 0.528641 6.76519 0.513401 7.42653C0.505217 7.72928 0.504233 8.03284 0.5 8.33559V9.41337V30.5877V31.6674C0.504233 31.9739 0.505217 32.2707 0.513401 32.5774C0.528641 33.2386 0.56547 33.8999 0.672574 34.5536C0.776291 35.2148 0.951551 35.8347 1.22785 36.4333C1.49723 37.0213 1.84959 37.5631 2.27462 38.0268C2.69499 38.4981 3.18083 38.8906 3.71268 39.1903C4.25399 39.4988 4.80673 39.6934 5.40137 39.813C5.99177 39.9307 6.59051 39.9692 7.18177 39.9874C7.45623 39.9942 7.72618 39.998 7.9981 39.998C8.32308 40 8.64482 40 8.97064 40H112.034C112.354 40 112.678 40 112.997 39.998C113.268 39.998 113.546 39.9942 113.816 39.9874C114.412 39.9692 115.008 39.9307 115.593 39.813C116.188 39.6934 116.742 39.4988 117.288 39.1903C117.819 38.8906 118.305 38.4981 118.725 38.0268C119.149 37.5631 119.501 37.0213 119.775 36.4333C120.047 35.8347 120.224 35.2148 120.325 34.5536C120.434 33.8999 120.469 33.2386 120.49 32.5774C120.493 32.2707 120.493 31.9739 120.493 31.6674C120.5 31.3088 120.5 30.9521 120.5 30.5877V9.41337C120.5 9.05181 120.5 8.69324 120.493 8.33559C120.493 8.03284 120.493 7.72928 120.49 7.42653C120.469 6.76519 120.434 6.104 120.325 5.45035C120.224 4.78916 120.047 4.17219 119.775 3.57152C119.501 2.98074 119.149 2.43887 118.725 1.97133C118.305 1.50377 117.819 1.11054 117.288 0.807782C116.742 0.502355 116.188 0.304643 115.593 0.188933C115.008 0.0713398 114.412 0.0308869 113.816 0.0144239C113.546 0.00972025 113.268 0.00391983 112.997 0.00203835C112.678 7.67045e-08 112.354 0 112.034 0Z" fill="#A6A6A6"/>
<path d="M8.20127 38.998C7.93165 38.998 7.66848 38.9943 7.40097 38.9875C6.90614 38.9722 6.31923 38.9416 5.74667 38.8277C5.20643 38.7195 4.72637 38.5433 4.28032 38.2907C3.8188 38.0314 3.4041 37.6964 3.04395 37.2943C2.6776 36.8963 2.37635 36.4388 2.14089 35.9258C1.91132 35.431 1.75444 34.9 1.66026 34.3017C1.55229 33.6423 1.5246 32.9732 1.51293 32.4641C1.50731 32.2574 1.5 31.5692 1.5 31.5692V8.41825C1.5 8.41825 1.50773 7.74063 1.51293 7.54154C1.5246 7.02815 1.55229 6.35957 1.65941 5.70687C1.75402 5.10522 1.9109 4.57455 2.14047 4.07782C2.37551 3.56397 2.67718 3.10414 3.03889 2.70781C3.40481 2.30199 3.82147 1.96606 4.2799 1.70579C4.73452 1.45019 5.21388 1.27553 5.74329 1.17263C6.33919 1.05449 6.94325 1.02491 7.40308 1.01199L8.20169 1H112.794L113.601 1.0123C114.056 1.02491 114.659 1.05449 115.246 1.1717C115.78 1.27507 116.262 1.45065 116.726 1.70874C117.179 1.96606 117.595 2.30199 117.957 2.70407C118.32 3.10211 118.622 3.56444 118.862 4.08031C119.091 4.58125 119.246 5.11191 119.337 5.69628C119.439 6.31459 119.471 6.94954 119.49 7.5459C119.493 7.82329 119.493 8.12155 119.493 8.41825C119.5 8.78577 119.5 9.13555 119.5 9.48829V30.5108C119.5 30.8668 119.5 31.2141 119.493 31.5643C119.493 31.8831 119.493 32.175 119.489 32.4756C119.471 33.0528 119.439 33.6873 119.338 34.292C119.246 34.8931 119.091 35.4242 118.86 35.9287C118.621 36.438 118.319 36.8982 117.961 37.2867C117.595 37.6964 117.181 38.0303 116.723 38.2888C116.263 38.5472 115.795 38.7184 115.246 38.8277C114.679 38.9416 114.093 38.9722 113.593 38.9875C113.332 38.9943 113.062 38.998 112.798 38.998L111.838 39L8.20127 38.998Z" fill="#E51B15"/>
<path d="M47.4595 10.7798C47.4595 11.413 47.3416 11.9423 47.1057 12.3678C46.8699 12.7908 46.5277 13.11 46.0791 13.3253C45.6305 13.5381 45.0896 13.6444 44.4564 13.6444H42.8953V8.02279H44.6256C45.2075 8.02279 45.7099 8.12789 46.1329 8.3381C46.5559 8.54574 46.8827 8.85463 47.1134 9.26478C47.3441 9.67237 47.4595 10.1774 47.4595 10.7798ZM46.4982 10.8067C46.4982 10.3453 46.4251 9.96589 46.279 9.66853C46.1355 9.37117 45.9227 9.15071 45.6407 9.00716C45.3613 8.86104 45.0165 8.78798 44.6064 8.78798H43.8181V12.8716H44.4718C45.1511 12.8716 45.6587 12.6985 45.9945 12.3525C46.3303 12.0064 46.4982 11.4911 46.4982 10.8067ZM51.8545 13.6444H48.6707V8.02279H51.8545V8.79952H49.5936V10.3261H51.7122V11.0989H49.5936V12.8639H51.8545V13.6444ZM56.3149 12.1141C56.3149 12.4473 56.2329 12.7344 56.0688 12.9754C55.9073 13.2163 55.6741 13.4009 55.369 13.5291C55.0665 13.6573 54.7051 13.7213 54.2847 13.7213C54.0796 13.7213 53.8835 13.7098 53.6964 13.6867C53.5092 13.6637 53.3323 13.6303 53.1657 13.5868C53.0017 13.5406 52.8517 13.4855 52.7158 13.4214V12.5524C52.944 12.6524 53.199 12.7434 53.481 12.8254C53.763 12.9049 54.0501 12.9446 54.3423 12.9446C54.5807 12.9446 54.7781 12.9139 54.9345 12.8523C55.0934 12.7882 55.2114 12.6985 55.2883 12.5832C55.3652 12.4653 55.4036 12.3281 55.4036 12.1717C55.4036 12.0051 55.3588 11.8641 55.269 11.7488C55.1793 11.6334 55.0435 11.5283 54.8614 11.4335C54.682 11.3361 54.4564 11.2322 54.1847 11.122C54.0001 11.0477 53.8232 10.9631 53.6541 10.8682C53.4874 10.7734 53.3388 10.6619 53.208 10.5337C53.0773 10.4055 52.9735 10.2543 52.8966 10.08C52.8222 9.90308 52.7851 9.69544 52.7851 9.45704C52.7851 9.13917 52.8607 8.86745 53.0119 8.64186C53.1657 8.41628 53.3811 8.24325 53.6579 8.12277C53.9373 8.00228 54.2629 7.94204 54.6346 7.94204C54.9294 7.94204 55.2062 7.9728 55.4651 8.03433C55.7266 8.09585 55.983 8.18301 56.2342 8.2958L55.9419 9.03792C55.7112 8.94307 55.4869 8.86745 55.269 8.81105C55.0537 8.75466 54.8332 8.72646 54.6077 8.72646C54.4128 8.72646 54.2475 8.75594 54.1116 8.8149C53.9758 8.87386 53.872 8.95717 53.8002 9.06483C53.731 9.16994 53.6964 9.29554 53.6964 9.44166C53.6964 9.60572 53.7361 9.74415 53.8156 9.85694C53.8976 9.96717 54.0232 10.0684 54.1924 10.1607C54.3641 10.253 54.5846 10.3555 54.8538 10.4683C55.1639 10.5965 55.4267 10.7311 55.642 10.8721C55.8599 11.0131 56.0265 11.1822 56.1419 11.3796C56.2572 11.5745 56.3149 11.8193 56.3149 12.1141ZM59.7948 8.72646C59.5256 8.72646 59.2847 8.77516 59.0719 8.87258C58.8617 8.96999 58.6836 9.11098 58.5374 9.29554C58.3913 9.47755 58.2798 9.69929 58.2029 9.96076C58.126 10.2197 58.0875 10.5119 58.0875 10.8375C58.0875 11.2732 58.1491 11.6488 58.2721 11.9641C58.3952 12.2768 58.5823 12.5178 58.8335 12.687C59.0847 12.8536 59.4026 12.9369 59.7871 12.9369C60.0255 12.9369 60.2575 12.9139 60.4831 12.8677C60.7087 12.8216 60.942 12.7588 61.1829 12.6793V13.4637C60.9548 13.5534 60.7241 13.6188 60.4908 13.6598C60.2575 13.7008 59.9883 13.7213 59.6833 13.7213C59.1091 13.7213 58.6323 13.6021 58.2529 13.3637C57.8761 13.1253 57.5941 12.7895 57.407 12.3563C57.2224 11.9231 57.1301 11.4155 57.1301 10.8336C57.1301 10.4081 57.1891 10.0184 57.307 9.66468C57.4249 9.31093 57.5966 9.00587 57.8222 8.74953C58.0478 8.49062 58.326 8.29195 58.6566 8.15353C58.9899 8.01254 59.3706 7.94204 59.7987 7.94204C60.0806 7.94204 60.3575 7.97409 60.6292 8.03817C60.9035 8.09969 61.1573 8.18813 61.3906 8.30349L61.0676 9.06483C60.8727 8.97255 60.6689 8.89308 60.4562 8.82643C60.2434 8.75978 60.023 8.72646 59.7948 8.72646ZM67.3813 10.8259C67.3813 11.2591 67.3262 11.6539 67.216 12.0102C67.1083 12.364 66.9456 12.669 66.7277 12.9254C66.5098 13.1792 66.2368 13.3753 65.9086 13.5137C65.5805 13.6521 65.196 13.7213 64.7551 13.7213C64.3065 13.7213 63.9168 13.6521 63.5862 13.5137C63.258 13.3753 62.985 13.1779 62.7671 12.9215C62.5518 12.6652 62.3903 12.3589 62.2826 12.0025C62.175 11.6462 62.1211 11.2515 62.1211 10.8182C62.1211 10.2389 62.216 9.7339 62.4057 9.30324C62.5979 8.87001 62.8889 8.5342 63.2785 8.2958C63.6707 8.05483 64.1655 7.93435 64.7628 7.93435C65.3472 7.93435 65.833 8.05355 66.2201 8.29195C66.6072 8.53035 66.8968 8.86617 67.0891 9.29939C67.2839 9.73005 67.3813 10.2389 67.3813 10.8259ZM63.0901 10.8259C63.0901 11.2591 63.1491 11.6347 63.267 11.9526C63.3849 12.2679 63.5656 12.5114 63.8092 12.6831C64.0553 12.8523 64.3706 12.9369 64.7551 12.9369C65.1422 12.9369 65.4575 12.8523 65.701 12.6831C65.9445 12.5114 66.124 12.2679 66.2393 11.9526C66.3547 11.6347 66.4124 11.2591 66.4124 10.8259C66.4124 10.1671 66.2803 9.65186 66.0163 9.28016C65.7548 8.9059 65.337 8.71877 64.7628 8.71877C64.3783 8.71877 64.0617 8.80336 63.813 8.97255C63.5669 9.14174 63.3849 9.38398 63.267 9.69929C63.1491 10.012 63.0901 10.3876 63.0901 10.8259ZM68.5887 8.02279H70.2614C70.9868 8.02279 71.5341 8.12789 71.9033 8.3381C72.2724 8.5483 72.457 8.91103 72.457 9.42628C72.457 9.64161 72.4185 9.83643 72.3416 10.0107C72.2673 10.1825 72.1583 10.3248 72.0148 10.4376C71.8712 10.5478 71.6943 10.6221 71.4841 10.6606V10.699C71.702 10.7375 71.8956 10.8054 72.0648 10.9028C72.2365 11.0002 72.3711 11.1399 72.4685 11.322C72.5685 11.504 72.6185 11.7398 72.6185 12.0295C72.6185 12.373 72.5364 12.6652 72.3724 12.9062C72.2109 13.1471 71.9789 13.3304 71.6764 13.456C71.3765 13.5816 71.0202 13.6444 70.6074 13.6444H68.5887V8.02279ZM69.5116 10.3414H70.396C70.8138 10.3414 71.1035 10.2735 71.265 10.1376C71.4265 10.0018 71.5072 9.80311 71.5072 9.54164C71.5072 9.27504 71.4111 9.08278 71.2188 8.96486C71.0291 8.84694 70.7266 8.78798 70.3114 8.78798H69.5116V10.3414ZM69.5116 11.0874V12.8716H70.4844C70.9151 12.8716 71.2175 12.7882 71.3919 12.6216C71.5662 12.455 71.6533 12.2294 71.6533 11.9449C71.6533 11.7706 71.6136 11.6193 71.5341 11.4911C71.4572 11.363 71.3303 11.2643 71.1535 11.1951C70.9766 11.1233 70.7382 11.0874 70.4383 11.0874H69.5116ZM75.3601 8.02279C75.8446 8.02279 76.2445 8.08175 76.5598 8.19967C76.8776 8.31759 77.1135 8.49703 77.2673 8.73799C77.4237 8.97896 77.5018 9.28529 77.5018 9.65699C77.5018 9.93384 77.4506 10.1697 77.348 10.3645C77.2455 10.5593 77.1109 10.7208 76.9443 10.849C76.7777 10.9772 76.5995 11.0797 76.4098 11.1566L78.0056 13.6444H76.9635L75.6062 11.3912H74.7026V13.6444H73.7797V8.02279H75.3601ZM75.2986 8.79183H74.7026V10.6298H75.3409C75.769 10.6298 76.0791 10.5504 76.2714 10.3914C76.4662 10.2325 76.5636 9.99793 76.5636 9.68775C76.5636 9.36219 76.4598 9.13148 76.2522 8.99562C76.0471 8.85976 75.7292 8.79183 75.2986 8.79183ZM81.993 13.6444H78.8092V8.02279H81.993V8.79952H79.732V10.3261H81.8507V11.0989H79.732V12.8639H81.993V13.6444ZM87.68 13.6444L86.0612 8.94948H86.0266C86.0343 9.05458 86.0433 9.19813 86.0535 9.38014C86.0638 9.56214 86.0727 9.75697 86.0804 9.96461C86.0881 10.1722 86.092 10.3709 86.092 10.5606V13.6444H85.2537V8.02279H86.5495L88.1068 12.5101H88.1299L89.741 8.02279H91.033V13.6444H90.1525V10.5145C90.1525 10.3427 90.155 10.1569 90.1602 9.95692C90.1679 9.75697 90.1755 9.56727 90.1832 9.38783C90.1935 9.20839 90.2012 9.06483 90.2063 8.95717H90.1755L88.4952 13.6444H87.68ZM95.9971 13.6444L95.4473 12.0833H93.2978L92.748 13.6444H91.7751L93.8669 7.99972H94.8897L96.9777 13.6444H95.9971ZM95.2089 11.2912L94.6744 9.75312C94.6539 9.68647 94.6244 9.59291 94.586 9.47242C94.5475 9.34938 94.5091 9.22505 94.4706 9.09944C94.4322 8.97127 94.4001 8.8636 94.3745 8.77645C94.3488 8.88155 94.3168 8.99947 94.2784 9.1302C94.2425 9.25837 94.2066 9.37886 94.1707 9.49165C94.1374 9.60444 94.1117 9.6916 94.0938 9.75312L93.5555 11.2912H95.2089ZM97.7198 13.6444V8.02279H98.6426V13.6444H97.7198ZM103.372 12.1141C103.372 12.4473 103.29 12.7344 103.126 12.9754C102.965 13.2163 102.731 13.4009 102.426 13.5291C102.124 13.6573 101.762 13.7213 101.342 13.7213C101.137 13.7213 100.941 13.7098 100.754 13.6867C100.566 13.6637 100.39 13.6303 100.223 13.5868C100.059 13.5406 99.909 13.4855 99.7731 13.4214V12.5524C100.001 12.6524 100.256 12.7434 100.538 12.8254C100.82 12.9049 101.107 12.9446 101.4 12.9446C101.638 12.9446 101.835 12.9139 101.992 12.8523C102.151 12.7882 102.269 12.6985 102.346 12.5832C102.422 12.4653 102.461 12.3281 102.461 12.1717C102.461 12.0051 102.416 11.8641 102.326 11.7488C102.237 11.6334 102.101 11.5283 101.919 11.4335C101.739 11.3361 101.514 11.2322 101.242 11.122C101.057 11.0477 100.881 10.9631 100.711 10.8682C100.545 10.7734 100.396 10.6619 100.265 10.5337C100.135 10.4055 100.031 10.2543 99.9538 10.08C99.8795 9.90308 99.8423 9.69544 99.8423 9.45704C99.8423 9.13917 99.9179 8.86745 100.069 8.64186C100.223 8.41628 100.438 8.24325 100.715 8.12277C100.995 8.00228 101.32 7.94204 101.692 7.94204C101.987 7.94204 102.264 7.9728 102.522 8.03433C102.784 8.09585 103.04 8.18301 103.291 8.2958L102.999 9.03792C102.769 8.94307 102.544 8.86745 102.326 8.81105C102.111 8.75466 101.891 8.72646 101.665 8.72646C101.47 8.72646 101.305 8.75594 101.169 8.8149C101.033 8.87386 100.929 8.95717 100.857 9.06483C100.788 9.16994 100.754 9.29554 100.754 9.44166C100.754 9.60572 100.793 9.74415 100.873 9.85694C100.955 9.96717 101.08 10.0684 101.25 10.1607C101.421 10.253 101.642 10.3555 101.911 10.4683C102.221 10.5965 102.484 10.7311 102.699 10.8721C102.917 11.0131 103.084 11.1822 103.199 11.3796C103.315 11.5745 103.372 11.8193 103.372 12.1141Z" fill="white"/>
<path d="M48.6752 26.1169C48.6752 26.6564 48.5444 27.1254 48.283 27.5238C48.0215 27.9223 47.6396 28.2294 47.1375 28.4452C46.6394 28.661 46.0334 28.769 45.3196 28.769C45.0042 28.769 44.6949 28.7482 44.392 28.7067C44.0931 28.6652 43.8047 28.605 43.5266 28.5262C43.2527 28.4431 42.9912 28.3415 42.7422 28.2211V26.4281C43.1738 26.619 43.6221 26.7913 44.0869 26.9449C44.5518 27.0984 45.0125 27.1752 45.469 27.1752C45.7844 27.1752 46.0376 27.1337 46.2285 27.0507C46.4236 26.9677 46.5647 26.8535 46.6519 26.7083C46.739 26.563 46.7826 26.397 46.7826 26.2102C46.7826 25.982 46.7058 25.7869 46.5522 25.625C46.3987 25.4632 46.187 25.3117 45.9172 25.1706C45.6516 25.0294 45.3507 24.878 45.0145 24.7161C44.8029 24.6165 44.5725 24.4961 44.3235 24.355C44.0745 24.2097 43.8379 24.0334 43.6138 23.8258C43.3896 23.6183 43.205 23.3672 43.0597 23.0725C42.9186 22.7737 42.848 22.4168 42.848 22.0017C42.848 21.458 42.9725 20.9932 43.2216 20.6072C43.4706 20.2212 43.8254 19.9265 44.2861 19.7232C44.751 19.5157 45.2988 19.4119 45.9297 19.4119C46.4028 19.4119 46.8531 19.4679 47.2806 19.58C47.7123 19.6879 48.1626 19.8456 48.6316 20.0531L48.009 21.5535C47.5898 21.3833 47.2142 21.2526 46.8822 21.1613C46.5502 21.0658 46.2119 21.0181 45.8674 21.0181C45.6267 21.0181 45.4213 21.0575 45.2511 21.1364C45.0809 21.2111 44.9523 21.319 44.8651 21.4601C44.778 21.5971 44.7344 21.7569 44.7344 21.9395C44.7344 22.1553 44.7966 22.3379 44.9211 22.4873C45.0498 22.6326 45.2407 22.7737 45.4939 22.9107C45.7512 23.0476 46.0708 23.2074 46.4526 23.39C46.9175 23.61 47.3138 23.8404 47.6417 24.0811C47.9738 24.3177 48.229 24.5978 48.4075 24.9215C48.5859 25.2411 48.6752 25.6396 48.6752 26.1169ZM56.0007 25.1519C56.0007 25.7329 55.9219 26.2476 55.7642 26.6958C55.6106 27.1441 55.3844 27.5238 55.0856 27.8351C54.7909 28.1422 54.434 28.3747 54.0148 28.5324C53.5997 28.6901 53.1307 28.769 52.6078 28.769C52.118 28.769 51.6677 28.6901 51.2568 28.5324C50.8501 28.3747 50.4952 28.1422 50.1923 27.8351C49.8934 27.5238 49.661 27.1441 49.495 26.6958C49.3331 26.2476 49.2522 25.7329 49.2522 25.1519C49.2522 24.3799 49.3892 23.7262 49.6631 23.1908C49.937 22.6554 50.3271 22.2487 50.8335 21.9706C51.3398 21.6925 51.9437 21.5535 52.6451 21.5535C53.2968 21.5535 53.8737 21.6925 54.3759 21.9706C54.8822 22.2487 55.2786 22.6554 55.5649 23.1908C55.8555 23.7262 56.0007 24.3799 56.0007 25.1519ZM51.1884 25.1519C51.1884 25.6084 51.2382 25.9923 51.3378 26.3036C51.4374 26.6149 51.593 26.8494 51.8047 27.0071C52.0164 27.1648 52.2924 27.2437 52.6327 27.2437C52.9689 27.2437 53.2407 27.1648 53.4482 27.0071C53.6599 26.8494 53.8135 26.6149 53.9089 26.3036C54.0085 25.9923 54.0583 25.6084 54.0583 25.1519C54.0583 24.6912 54.0085 24.3094 53.9089 24.0064C53.8135 23.6992 53.6599 23.4689 53.4482 23.3153C53.2366 23.1618 52.9606 23.085 52.6202 23.085C52.118 23.085 51.7528 23.2572 51.5245 23.6017C51.3004 23.9462 51.1884 24.4629 51.1884 25.1519ZM58.9684 18.9574V21.2111C58.9684 21.4726 58.9601 21.732 58.9435 21.9893C58.931 22.2466 58.9144 22.4458 58.8937 22.5869H58.9684C59.151 22.3006 59.4 22.0578 59.7155 21.8586C60.0309 21.6552 60.4397 21.5535 60.9419 21.5535C61.7222 21.5535 62.3551 21.8586 62.8407 22.4687C63.3263 23.0788 63.5691 23.9732 63.5691 25.1519C63.5691 25.9446 63.457 26.6107 63.2329 27.1503C63.0088 27.6857 62.6954 28.0904 62.2928 28.3643C61.8903 28.6341 61.4233 28.769 60.8921 28.769C60.3816 28.769 59.979 28.6776 59.6843 28.495C59.3896 28.3124 59.151 28.107 58.9684 27.8787H58.8376L58.5201 28.6444H57.0696V18.9574H58.9684ZM60.3318 23.0725C59.9998 23.0725 59.7362 23.141 59.5411 23.278C59.3461 23.4149 59.2029 23.6204 59.1116 23.8943C59.0244 24.1682 58.9767 24.5148 58.9684 24.934V25.1394C58.9684 25.8159 59.068 26.3347 59.2672 26.6958C59.4664 27.0528 59.8296 27.2312 60.3567 27.2312C60.7468 27.2312 61.056 27.0507 61.2843 26.6896C61.5167 26.3285 61.6329 25.8076 61.6329 25.127C61.6329 24.4463 61.5167 23.9337 61.2843 23.5893C61.0519 23.2448 60.7344 23.0725 60.3318 23.0725ZM68.5227 21.5535C68.6182 21.5535 68.7281 21.5597 68.8527 21.5722C68.9813 21.5805 69.0851 21.5929 69.1639 21.6095L69.0208 23.39C68.9585 23.3693 68.8693 23.3548 68.7531 23.3465C68.641 23.334 68.5435 23.3278 68.4604 23.3278C68.2156 23.3278 67.9769 23.3589 67.7445 23.4212C67.5162 23.4834 67.3108 23.5851 67.1282 23.7262C66.9456 23.8632 66.8003 24.0458 66.6924 24.2741C66.5886 24.4982 66.5367 24.7742 66.5367 25.1021V28.6444H64.6379V21.6842H66.076L66.3562 22.8546H66.4496C66.5865 22.6181 66.7567 22.4023 66.9601 22.2072C67.1676 22.008 67.4021 21.8503 67.6636 21.734C67.9292 21.6137 68.2156 21.5535 68.5227 21.5535ZM72.7977 21.5535C73.441 21.5535 73.9951 21.678 74.46 21.927C74.9248 22.1719 75.2838 22.5288 75.537 22.9978C75.7902 23.4668 75.9167 24.0396 75.9167 24.7161V25.6375H71.4281C71.4489 26.1729 71.6086 26.5941 71.9075 26.9013C72.2104 27.2043 72.6296 27.3557 73.165 27.3557C73.6091 27.3557 74.0159 27.3101 74.3853 27.2188C74.7546 27.1275 75.1344 26.9905 75.5245 26.8079V28.2771C75.1801 28.4473 74.819 28.5718 74.4413 28.6507C74.0677 28.7295 73.6133 28.769 73.0779 28.769C72.3806 28.769 71.7622 28.6403 71.2227 28.383C70.6873 28.1256 70.266 27.7334 69.9589 27.2063C69.6559 26.6792 69.5044 26.0152 69.5044 25.2141C69.5044 24.4007 69.6414 23.7242 69.9153 23.1846C70.1934 22.6409 70.5793 22.2342 71.0732 21.9644C71.5671 21.6905 72.142 21.5535 72.7977 21.5535ZM72.8102 22.9044C72.4408 22.9044 72.1337 23.0227 71.8888 23.2593C71.6481 23.4959 71.509 23.8673 71.4717 24.3737H74.1362C74.1321 24.0915 74.0802 23.8404 73.9806 23.6204C73.8851 23.4004 73.7399 23.2261 73.5448 23.0974C73.3539 22.9688 73.109 22.9044 72.8102 22.9044ZM82.624 21.541C83.5579 21.541 84.2738 21.7444 84.7719 22.1512C85.2699 22.5579 85.5189 23.1763 85.5189 24.0064V28.6444H84.1929L83.8256 27.6982H83.7758C83.5765 27.9472 83.3732 28.1505 83.1656 28.3083C82.9581 28.466 82.7195 28.5822 82.4497 28.6569C82.1799 28.7316 81.8521 28.769 81.4661 28.769C81.0552 28.769 80.6858 28.6901 80.3579 28.5324C80.0342 28.3747 79.7789 28.1339 79.5922 27.8102C79.4054 27.4823 79.312 27.0673 79.312 26.5651C79.312 25.8263 79.5714 25.2826 80.0902 24.934C80.609 24.5812 81.3872 24.3861 82.4248 24.3488L83.6326 24.3114V24.0064C83.6326 23.6411 83.5371 23.3734 83.3462 23.2033C83.1553 23.0331 82.8896 22.948 82.5493 22.948C82.2131 22.948 81.8832 22.9958 81.5594 23.0912C81.2357 23.1867 80.912 23.307 80.5883 23.4523L79.9595 22.1698C80.3289 21.9748 80.7418 21.8212 81.1984 21.7091C81.6591 21.5971 82.1343 21.541 82.624 21.541ZM83.6326 25.4196L82.8979 25.4445C82.2837 25.4611 81.8562 25.5711 81.6155 25.7744C81.3789 25.9778 81.2606 26.2455 81.2606 26.5775C81.2606 26.8681 81.3457 27.0756 81.5159 27.2001C81.686 27.3205 81.9081 27.3806 82.182 27.3806C82.5887 27.3806 82.9312 27.2603 83.2092 27.0196C83.4915 26.7788 83.6326 26.4364 83.6326 25.9923V25.4196ZM92.6433 21.541C93.5771 21.541 94.2931 21.7444 94.7911 22.1512C95.2892 22.5579 95.5382 23.1763 95.5382 24.0064V28.6444H94.2122L93.8448 27.6982H93.795C93.5958 27.9472 93.3925 28.1505 93.1849 28.3083C92.9774 28.466 92.7388 28.5822 92.469 28.6569C92.1992 28.7316 91.8713 28.769 91.4854 28.769C91.0745 28.769 90.7051 28.6901 90.3772 28.5324C90.0535 28.3747 89.7982 28.1339 89.6115 27.8102C89.4247 27.4823 89.3313 27.0673 89.3313 26.5651C89.3313 25.8263 89.5907 25.2826 90.1095 24.934C90.6283 24.5812 91.4065 24.3861 92.4441 24.3488L93.6519 24.3114V24.0064C93.6519 23.6411 93.5564 23.3734 93.3655 23.2033C93.1746 23.0331 92.9089 22.948 92.5686 22.948C92.2324 22.948 91.9025 22.9958 91.5787 23.0912C91.255 23.1867 90.9313 23.307 90.6075 23.4523L89.9788 22.1698C90.3481 21.9748 90.7611 21.8212 91.2177 21.7091C91.6783 21.5971 92.1536 21.541 92.6433 21.541ZM93.6519 25.4196L92.9172 25.4445C92.303 25.4611 91.8755 25.5711 91.6348 25.7744C91.3982 25.9778 91.2799 26.2455 91.2799 26.5775C91.2799 26.8681 91.365 27.0756 91.5352 27.2001C91.7053 27.3205 91.9274 27.3806 92.2013 27.3806C92.608 27.3806 92.9504 27.2603 93.2285 27.0196C93.5107 26.7788 93.6519 26.4364 93.6519 25.9923V25.4196ZM100.872 21.5535C101.656 21.5535 102.289 21.8586 102.77 22.4687C103.256 23.0788 103.499 23.9732 103.499 25.1519C103.499 25.9405 103.385 26.6045 103.156 27.1441C102.928 27.6795 102.613 28.0841 102.21 28.3581C101.807 28.632 101.345 28.769 100.822 28.769C100.486 28.769 100.197 28.7274 99.9564 28.6444C99.7157 28.5573 99.5103 28.4473 99.3401 28.3145C99.1699 28.1775 99.0226 28.0323 98.8981 27.8787H98.7985C98.8317 28.0447 98.8566 28.2149 98.8732 28.3892C98.8898 28.5635 98.8981 28.7337 98.8981 28.8997V31.7074H96.9993V21.6842H98.5432L98.8109 22.5869H98.8981C99.0226 22.4002 99.1741 22.2279 99.3525 22.0702C99.531 21.9125 99.7448 21.788 99.9938 21.6967C100.247 21.6012 100.54 21.5535 100.872 21.5535ZM100.261 23.0725C99.9294 23.0725 99.6659 23.141 99.4708 23.278C99.2758 23.4149 99.1326 23.6204 99.0413 23.8943C98.9541 24.1682 98.9064 24.5148 98.8981 24.934V25.1394C98.8981 25.5877 98.9396 25.9674 99.0226 26.2787C99.1097 26.59 99.2529 26.8266 99.4521 26.9884C99.6555 27.1503 99.9336 27.2312 100.286 27.2312C100.577 27.2312 100.816 27.1503 101.002 26.9884C101.189 26.8266 101.328 26.59 101.419 26.2787C101.515 25.9633 101.563 25.5794 101.563 25.127C101.563 24.4463 101.457 23.9337 101.245 23.5893C101.033 23.2448 100.706 23.0725 100.261 23.0725ZM108.44 21.5535C109.224 21.5535 109.857 21.8586 110.339 22.4687C110.824 23.0788 111.067 23.9732 111.067 25.1519C111.067 25.9405 110.953 26.6045 110.725 27.1441C110.496 27.6795 110.181 28.0841 109.778 28.3581C109.376 28.632 108.913 28.769 108.39 28.769C108.054 28.769 107.766 28.7274 107.525 28.6444C107.284 28.5573 107.079 28.4473 106.908 28.3145C106.738 28.1775 106.591 28.0323 106.466 27.8787H106.367C106.4 28.0447 106.425 28.2149 106.442 28.3892C106.458 28.5635 106.466 28.7337 106.466 28.8997V31.7074H104.568V21.6842H106.112L106.379 22.5869H106.466C106.591 22.4002 106.742 22.2279 106.921 22.0702C107.099 21.9125 107.313 21.788 107.562 21.6967C107.815 21.6012 108.108 21.5535 108.44 21.5535ZM107.83 23.0725C107.498 23.0725 107.234 23.141 107.039 23.278C106.844 23.4149 106.701 23.6204 106.61 23.8943C106.522 24.1682 106.475 24.5148 106.466 24.934V25.1394C106.466 25.5877 106.508 25.9674 106.591 26.2787C106.678 26.59 106.821 26.8266 107.021 26.9884C107.224 27.1503 107.502 27.2312 107.855 27.2312C108.145 27.2312 108.384 27.1503 108.571 26.9884C108.757 26.8266 108.896 26.59 108.988 26.2787C109.083 25.9633 109.131 25.5794 109.131 25.127C109.131 24.4463 109.025 23.9337 108.813 23.5893C108.602 23.2448 108.274 23.0725 107.83 23.0725Z" fill="white"/>
<rect x="9" y="7" width="25.45" height="25.45" rx="6" fill="#E51B15"/>
<path fill-rule="evenodd" clip-rule="evenodd" d="M29.3566 14.8083L26.2507 17.9594L23.4223 15.0899C22.3602 14.0123 20.6377 14.0123 19.5758 15.09L19.5606 15.1063L16.7482 17.9594L13.643 14.809C12.5811 13.7314 10.8587 13.7314 9.79682 14.809C8.73439 15.887 8.73439 17.6345 9.79682 18.7117L16.7482 25.7647L21.4995 20.9446L26.2507 25.7647L33.2031 18.7111C34.2656 17.6335 34.2656 15.8862 33.2032 14.8084C32.1411 13.7306 30.4186 13.7306 29.3566 14.8083Z" fill="white"/>
</g>
<defs>
<clipPath id="clip0_1901_508">
<rect width="120" height="40" fill="white" transform="translate(0.5)"/>
</clipPath>
</defs>
</svg>
